<svg xmlns="http://www.w3.org/2000/svg" xmlns:xlink="http://www.w3.org/1999/xlink" width="133" height="20" viewBox="0 0 133 20">
    <defs>
        <path id="prefix__a" d="M22.271 8.333L22.271 0 0 0 0 8.333z"/>
        <path id="prefix__c" d="M13.822.083c-1.17 0-2.12.996-2.12 2.222 0 1.306.909 2.281 2.12 2.281 1.182 0 2.116-.988 2.116-2.255 0-1.258-.928-2.248-2.116-2.248"/>
        <path id="prefix__g" d="M0 0v20h30.234V0H0z"/>
        <path id="prefix__j" d="M0.005 2.564L19.035 2.564 19.035 0.013 0.005 0.013z"/>
        <path id="prefix__l" d="M0 16.597L20.285 16.597 20.285 0 0 0z"/>
        <radialGradient id="prefix__e" cx="0%" cy="0%" r="180.278%" fx="0%" fy="0%" gradientTransform="matrix(.5547 .5547 -.5941 1.3367 0 0)">
            <stop offset="0%" stop-color="#FFF"/>
            <stop offset="100%" stop-color="#F3F3F3"/>
        </radialGradient>
        <radialGradient id="prefix__h" cx="21.026%" cy="16.539%" r="88.76%" fx="21.026%" fy="16.539%" gradientTransform="matrix(.43315 .7558 -.5462 .71535 .21 -.112)">
            <stop offset="0%" stop-color="#65BCF2"/>
            <stop offset="100%" stop-color="#004FC5"/>
        </radialGradient>
        <rect id="prefix__d" width="30" height="20" x="0" y="0" rx="1.576"/>
    </defs>
    <g fill="none" fill-rule="evenodd">
        <g transform="translate(102)">
            <rect width="30.234" height="20" fill="#FFF" rx="3.24"/>
            <g transform="translate(7.49 11.833)">
                <mask id="prefix__b" fill="#fff">
                    <use xlink:href="#prefix__a"/>
                </mask>
                <path fill="#F4811F" d="M22.27 0S14.406 5.527 0 8h20.27c1.105 0 2-.895 2-2V0z" mask="url(#prefix__b)"/>
            </g>
            <g transform="translate(2.16 6.021)">
                <path fill="#001722" d="M1.786.165H.646v4.323H1.78c.603 0 1.037-.154 1.419-.498.453-.408.721-1.025.721-1.661 0-1.276-.877-2.164-2.134-2.164zm.907 3.248c-.245.24-.56.344-1.062.344h-.209V.897h.209c.501 0 .805.097 1.062.35.268.26.428.661.428 1.076 0 .416-.16.831-.428 1.09zM4.278.165L5.052.165 5.052 4.488 4.278 4.488zM6.95 1.823c-.467-.187-.604-.31-.604-.543 0-.273.244-.48.58-.48.231 0 .422.103.625.348l.405-.575c-.333-.319-.733-.48-1.169-.48-.702 0-1.24.531-1.24 1.237 0 .597.25.902.978 1.188.304.116.46.194.537.247.155.11.233.265.233.446 0 .351-.257.61-.604.61-.369 0-.667-.2-.846-.577l-.5.526c.357.57.786.823 1.377.823.805 0 1.371-.584 1.371-1.42 0-.688-.261-.999-1.144-1.35M8.338 2.329c0 1.272.917 2.257 2.098 2.257.334 0 .62-.072.972-.252v-.992c-.31.337-.585.473-.937.473-.78 0-1.335-.617-1.335-1.492 0-.83.572-1.485 1.3-1.485.37 0 .65.143.972.487V.332c-.34-.187-.62-.264-.953-.264-1.175 0-2.117 1.005-2.117 2.261M17.692 3.07L16.63.165 15.784.165 17.472 4.599 17.888 4.599 19.605.165 18.765.165 17.692 3.07M19.958 4.488L22.158 4.488 22.158 3.757 20.732 3.757 20.732 2.589 22.103 2.589 22.103 1.856 20.732 1.856 20.732.896 22.158.896 22.158.165 19.958.165 19.958 4.488M25.227 1.44c0-.809-.512-1.275-1.406-1.275h-1.152v4.323h.776V2.751h.101l1.073 1.737h.954L24.32 2.667c.586-.13.907-.564.907-1.226zm-1.556.715h-.226V.845h.239c.483 0 .746.22.746.641 0 .434-.263.67-.76.67z"/>
                <path fill="#231F20" d="M25.789.495c0-.082-.05-.125-.14-.125h-.12v.404h.088V.617l.104.157h.11l-.124-.167c.053-.015.082-.057.082-.112zm-.156.054h-.016V.443h.018c.043 0 .065.019.065.053 0 .035-.023.053-.067.053z"/>
                <path fill="#231F20" d="M25.659.226c-.17 0-.306.149-.306.333 0 .186.138.333.306.333.166 0 .301-.15.301-.333 0-.182-.135-.333-.301-.333zm0 .606c-.137 0-.246-.121-.246-.272 0-.152.109-.273.246-.273.131 0 .24.124.24.273 0 .15-.109.272-.24.272z"/>
                <use fill="#F58220" xlink:href="#prefix__c"/>
            </g>
            <rect width="29.5" height="19.5" x=".25" y=".25" stroke="#D8D8D8" stroke-width=".5" rx="1.62"/>
        </g>
        <g transform="translate(68)">
            <mask id="prefix__f" fill="#fff">
                <use xlink:href="#prefix__d"/>
            </mask>
            <use fill="url(#prefix__e)" xlink:href="#prefix__d"/>
            <g mask="url(#prefix__f)">
                <g transform="translate(0 -.324)">
                    <mask id="prefix__i" fill="#fff">
                        <use xlink:href="#prefix__g"/>
                    </mask>
                    <use fill="url(#prefix__h)" xlink:href="#prefix__g"/>
                    <g mask="url(#prefix__i)">
                        <g>
                            <path fill="#FFF" d="M7.894 4.989h.428l.121-.287.001.287h6.962V3.675h.235l.079.001v.096l-.001.076.008 1.14h3.515v-.39c.471.32 1.052.39 1.395.39h1.418l.31-.806h.843l.324.807h2.788v-.935l.541.935h2.207V0h-2.165v.741L26.473 0h-2.296v.76L23.865 0h-3.167c-.609 0-1.086.134-1.456.397V0h-2.164v.227C16.69.025 16.281 0 15.83 0H8.133l-.588 1.444L6.907 0H4.469v.774L4.151 0H2.047L0 4.989h2.34l.32-.807h.848l.318.807h2.788V4.7l.123.288h1.157zm11.348-3.607c.055-.095.116-.187.195-.273.269-.29.689-.423 1.26-.423h.803v.775h-.784c-.303 0-.477.048-.642.215-.14.153-.237.44-.237.82 0 .388.071.666.23.85.125.14.357.185.576.185h.374l1.17-2.845h1.244l1.404 3.422V.686h1.267l1.459 2.519V.685h.85v3.619h-1.178L25.66 1.59l.002 2.713H23.97l-.323-.808H21.92l-.31.808h-.973c-.405 0-.916-.094-1.203-.399-.295-.31-.445-.723-.445-1.383 0-.419.06-.806.253-1.14zm-1.505 1.385V.686h.847v3.618h-.847V2.767zM13.919.686h1.91c.422 0 .737.013 1.005.175.263.16.42.396.42.802 0 .252-.077.444-.176.596-.125.192-.288.317-.408.367.181.072.336.197.408.305.118.177.14.342.14.66v.713h-.837l-.004-.456c0-.215.022-.53-.133-.702-.121-.129-.304-.156-.603-.156h-.893v1.314h-.829V.686zm-3.35 0h2.774v.756h-1.942v.65h1.894v.743l-1.894-.003v.723h1.942v.749H10.57V.686zm-4.613.781v2.837H4.268l-.318-.808H2.22l-.32.808H.997L2.482.686h1.235l1.41 3.427V.686h1.359L7.57 3.14l1-2.455h1.382v3.618h-.85l-.005-2.83-1.203 2.83h-.729l-1.21-2.837z" transform="translate(-.81 4.444)"/>
                            <path fill="#FFF" d="M2.422 2.63L3.567 2.63 2.993 1.27 2.422 2.63M16.252 2.017c.11-.057.176-.17.176-.313 0-.138-.068-.239-.177-.287-.102-.052-.256-.056-.406-.056h-1.047v.722h1.034c.167 0 .305-.005.42-.066M22.766 1.27L22.197 2.63 23.342 2.63 22.766 1.27M13.785 10.113L13.785 7.166 12.552 8.615 13.785 10.113M15.6 7.483h-1.11v.998h1.101c.326 0 .528-.177.528-.517 0-.344-.212-.481-.52-.481M8.456 7.483L8.456 8.116 10.256 8.116 10.256 8.828 8.456 8.828 8.456 9.524 10.471 9.524 11.407 8.5 10.51 7.483 8.456 7.483" transform="translate(-.81 4.444)"/>
                            <path fill="#FFF" d="M31.054 8.263h.093v-2.14h-2.314c-.388 0-.703.093-.965.238v-.239h-2.313c-.367 0-.67.084-.923.214v-.214H20.56v.22c-.398-.195-.79-.22-1.222-.22h-2.563v.235c-.282-.143-.649-.235-1.127-.235H12.72l-.757.853-.732-.853H6.959v4.99h4.216l.195-.221.567-.642.733.862h2.554V9.898h.376c.505 0 .882-.099 1.175-.248v1.461h2.14V9.79h.23c.032 0 .06 0 .084.002v1.321h6.852c.393 0 .728-.079 1.012-.213v.212h2.267c1.224 0 1.954-.684 1.954-1.828 0-.413-.084-.743-.26-1.02zM16.558 9c-.024.014-.052.026-.078.04-.059.03-.12.055-.183.076-.032.01-.063.02-.096.028-.067.017-.136.03-.206.04-.03.003-.06.01-.09.013-.1.01-.202.015-.305.015H14.57v1.214h-1.605l-1.018-1.197-1.058 1.197H7.614V6.808h3.325l1.017 1.184 1.05-1.184h2.642c.092 0 .188.005.282.015.028.002.054.007.082.012.068.009.135.022.2.038.03.008.06.016.089.026.066.02.127.048.188.079.023.01.046.02.068.034.08.048.154.104.218.175.163.18.265.44.265.814 0 .52-.195.824-.482.999zm4.017.049c.117.177.136.342.138.661v.716h-.829v-.454c0-.217.02-.538-.134-.706-.12-.133-.305-.163-.606-.163h-.885v1.323h-.828V6.808h1.907c.42 0 .725.018.995.173.09.056.163.124.227.201.12.146.196.332.196.602 0 .575-.367.87-.586.96.09.034.168.081.236.132.073.056.133.117.17.173zm3.402-2.11v.619H22.04v.655h1.888v.738H22.04v.72l1.937.004v.75h-2.761V6.809h2.76v.131zm3.116 3.135c-.045.048-.098.089-.154.126-.08.054-.166.102-.265.137-.04.012-.085.02-.128.031-.139.034-.29.058-.465.058h-1.612v-.777h1.605c.16 0 .268-.021.338-.09.057-.053.098-.133.098-.234 0-.106-.043-.192-.102-.24-.063-.057-.15-.08-.293-.082l-.393-.013-.048-.003c-.284-.015-.562-.053-.791-.164-.116-.056-.217-.133-.3-.234-.127-.162-.21-.383-.21-.706 0-.323.122-.657.418-.865l.002-.002c.055-.038.118-.071.185-.1l.021-.011c.063-.026.135-.044.21-.06.015-.003.028-.009.043-.012.093-.016.193-.025.303-.025h1.658v.77h-1.516c-.152 0-.25.006-.333.065-.09.059-.123.147-.123.262 0 .134.077.228.18.268.087.032.18.04.32.042l.447.012c.105.002.201.01.29.021.08.01.153.026.222.043l.015.004c.175.045.315.115.416.222.164.176.248.396.248.766 0 .35-.107.605-.286.791zm2.267.352h-1.612v-.777h1.606c.159 0 .267-.021.337-.09.057-.053.098-.133.098-.234 0-.106-.043-.192-.102-.24-.063-.057-.149-.08-.293-.082-.12-.004-.244-.007-.369-.013l-.032-.001c-.127-.006-.251-.017-.373-.035h-.006c-.522-.076-.961-.301-.961-1.07 0-.235.068-.473.215-.666.044-.057.094-.11.153-.157l.013-.011c.053-.042.113-.078.18-.11.012-.007.024-.015.037-.02.062-.028.132-.049.205-.066.022-.005.04-.013.062-.017.096-.018.2-.03.315-.03h1.659v.77h-1.516c-.152 0-.25.007-.333.066-.089.059-.123.147-.123.262 0 .134.077.228.18.268.088.032.18.04.321.042l.447.012c.45.013.755.093.942.29.163.176.248.396.248.766 0 .78-.465 1.143-1.298 1.143z" transform="translate(-.81 4.444)"/>
                            <path fill="#FFF" d="M19.775 7.54c-.1-.055-.254-.057-.405-.057H18.32v.73h1.035c.165 0 .307-.006.419-.066.11-.062.176-.175.176-.313 0-.14-.066-.24-.176-.294" transform="translate(-.81 4.444)"/>
                            <path fill="#2584BA" d="M16.692 2.462c.11-.045.257-.157.371-.33-.114.173-.262.285-.371.33M15.869 9.07c-.092.009-.185.014-.278.014.093 0 .186-.005.278-.014M15.635 6.803c.084 0 .171.004.257.013-.086-.009-.173-.013-.257-.013M16.264 9.07c-.061.016-.124.027-.189.036.065-.009.128-.02.189-.036M16.462 8.98c-.053.027-.108.05-.166.069.058-.02.113-.042.166-.07M16.296 6.803c.06.019.116.043.171.07-.055-.027-.112-.052-.171-.07M16.075 6.803c.062.008.124.02.184.034-.06-.014-.122-.026-.184-.034M16.604 6.939c.073.043.141.093.199.157-.058-.064-.126-.114-.2-.157M27.05 9.932c-.04.042-.09.079-.14.113.051-.034.1-.07.14-.113M25.236 6.825c.085-.015.176-.022.276-.022-.1 0-.191.007-.276.022M26.719 10.204c-.036.012-.079.019-.118.029.04-.01.081-.017.118-.029M24.752 7.029c.05-.035.107-.064.169-.09-.062.026-.119.055-.17.09M26.08 8.901l-.36-.012.36.012M25.695 8.9c-.259-.015-.516-.047-.723-.147.209.1.463.134.723.147M25.06 6.857c.058-.023.123-.04.19-.054-.067.014-.132.03-.19.054M26.47 8.163c.073.01.14.023.202.039-.063-.016-.129-.03-.203-.039M24.848 8.692c-.106-.052-.198-.12-.273-.211.075.091.167.16.273.211M29.493 8.9c-.11-.003-.223-.006-.337-.011.114.005.227.008.337.011M28.099 7.037c.048-.037.104-.07.164-.098-.06.028-.116.06-.164.098M28.54 6.829c.087-.017.182-.026.287-.026-.104 0-.2.01-.288.026M28.01 7.17c.04-.05.087-.097.14-.14-.053.043-.1.09-.14.14M29.013 8.92c-.116-.006-.23-.015-.342-.031.112.015.226.025.342.03M28.275 6.861c.057-.024.121-.042.188-.058-.068.015-.131.034-.188.058M20.391 6.939c.082.05.149.112.208.181-.06-.07-.126-.131-.208-.181" transform="translate(-.81 4.444)"/>
                        </g>
                    </g>
                </g>
            </g>
        </g>
        <g transform="translate(34)">
            <rect width="30" height="20" fill="#000" rx="1.62"/>
            <g transform="translate(5 2)">
                <g transform="translate(1.045 14.032)">
                    <mask id="prefix__k" fill="#fff">
                        <use xlink:href="#prefix__j"/>
                    </mask>
                    <path fill="#FFF" d="M16.913 1.594c0-.33.199-.594.52-.594.307 0 .509.253.509.594 0 .34-.202.594-.51.594-.32 0-.519-.264-.519-.594zm1.35 0V.014h-.335V.93c-.115-.158-.304-.257-.54-.257-.468 0-.824.385-.824.92 0 .536.356.921.823.921.237 0 .426-.099.54-.256v.212h.335v-.876zm-4.715 0c0-.33.199-.594.52-.594.307 0 .509.253.509.594 0 .34-.202.594-.51.594-.32 0-.519-.264-.519-.594zm1.35 0V.717h-.335V.93c-.115-.158-.303-.257-.54-.257-.468 0-.824.385-.824.92 0 .536.356.921.823.921.238 0 .426-.099.541-.256v.212h.335v-.876zm3.94.745v.043h.038c.008 0 .015-.002.02-.005.006-.004.008-.01.008-.017 0-.007-.002-.012-.007-.016-.006-.003-.013-.005-.021-.005h-.038zm.038-.03c.02 0 .035.004.046.014.01.009.016.021.016.037 0 .014-.004.025-.013.033-.008.009-.02.014-.036.016l.05.061h-.04l-.046-.06h-.015v.06h-.033V2.31h.071zm-.01.217c.018 0 .035-.004.05-.01.016-.008.03-.018.04-.03.013-.012.022-.026.028-.043.007-.017.01-.034.01-.053 0-.019-.003-.036-.01-.053-.006-.016-.015-.03-.027-.043-.012-.012-.025-.022-.04-.029-.016-.007-.033-.01-.05-.01-.019 0-.036.003-.051.01-.016.007-.03.017-.042.03-.011.011-.02.026-.027.042-.007.017-.01.034-.01.053 0 .019.003.036.01.053s.016.03.027.043c.012.012.026.022.042.03.015.006.032.01.05.01zm0-.31c.024 0 .046.005.066.014.02.009.038.021.054.037.015.016.027.034.036.056.008.02.013.043.013.067 0 .024-.005.046-.013.068-.01.02-.021.039-.036.055-.016.015-.034.028-.054.037-.02.01-.042.014-.065.014-.024 0-.046-.004-.067-.014-.02-.009-.039-.022-.054-.037-.015-.016-.027-.034-.036-.055-.009-.022-.013-.044-.013-.068 0-.024.004-.046.013-.067.01-.022.02-.04.036-.056.015-.016.033-.028.054-.037.02-.01.043-.014.067-.014zM16.182.673c-.21 0-.36.103-.453.257V.717h-.332V2.47h.335v-.986c0-.29.133-.477.37-.477.073 0 .15.011.226.044l.112-.33c-.08-.033-.185-.048-.258-.048zm-12.867.92c0-.33.199-.593.52-.593.307 0 .509.253.509.594 0 .34-.202.594-.51.594-.32 0-.519-.264-.519-.594zm1.35 0V.718h-.335V.93c-.115-.158-.304-.257-.54-.257-.468 0-.824.385-.824.92 0 .536.356.921.823.921.237 0 .426-.099.54-.256v.212h.336v-.876zM9.176 1c.247 0 .415.168.44.443h-.9c.03-.256.191-.443.46-.443zm.007-.327c-.489 0-.823.37-.823.917 0 .558.349.924.847.924.251 0 .481-.066.684-.245l-.178-.26c-.14.117-.318.183-.485.183-.234 0-.47-.14-.513-.455H9.96c.004-.048.007-.096.007-.147-.003-.546-.317-.917-.784-.917zm2.343.92c0 .533.338.921.875.921.251 0 .419-.058.6-.209l-.175-.275c-.136.103-.278.158-.435.158-.29-.004-.517-.242-.517-.594s.227-.59.517-.594c.157 0 .3.055.435.157l.175-.275c-.181-.15-.349-.209-.6-.209-.537 0-.875.39-.875.92zM6.47.858C6.295.736 6.055.673 5.79.673c-.422 0-.68.21-.68.558 0 .286.188.458.561.513l.171.026c.199.03.307.103.307.201 0 .136-.146.224-.394.224-.262 0-.432-.084-.554-.183l-.171.275c.247.19.544.227.721.227.482 0 .747-.234.747-.568 0-.308-.203-.466-.569-.52l-.17-.027c-.157-.021-.297-.073-.297-.19 0-.129.133-.217.331-.217.213 0 .419.085.52.15L6.47.858zm4.676-.184c-.21 0-.36.103-.454.257V.717h-.33V2.47h.334v-.986c0-.29.132-.477.37-.477.073 0 .15.011.226.044l.112-.33c-.08-.033-.185-.048-.258-.048zM8.053.717h-.607V.186h-.338v.531h-.352v.32h.352v.828c0 .407.136.65.565.65.157 0 .338-.052.453-.136l-.104-.312c-.109.066-.227.099-.321.099-.182 0-.255-.117-.255-.293v-.837h.607V.717zM2.62 2.47V1.366c0-.414-.237-.689-.641-.693-.213-.003-.433.066-.586.312C1.278.791 1.096.673.842.673.664.673.476.725.34.93V.717H.005V2.47h.338V1.465C.343 1.161.518 1 .765 1c.24 0 .377.165.377.462V2.47h.338V1.465c0-.304.181-.465.422-.465.248 0 .38.165.38.462V2.47h.338z" mask="url(#prefix__k)"/>
                </g>
                <mask id="prefix__m" fill="#fff">
                    <use xlink:href="#prefix__l"/>
                </mask>
                <path fill="#FF5F00" d="M7.125 11.777L13.16 11.777 13.16 1.41 7.125 1.41z" mask="url(#prefix__m)"/>
                <path fill="#EB001B" d="M7.748 6.593c0-2.103.937-3.976 2.395-5.183C9.076.527 7.73 0 6.268 0 2.806 0 0 2.952 0 6.593c0 3.642 2.806 6.594 6.268 6.594 1.463 0 2.808-.527 3.875-1.41-1.458-1.207-2.395-3.08-2.395-5.184" mask="url(#prefix__m)"/>
                <path fill="#F79E1B" d="M20.09 10.744v-.32h-.064l-.073.22-.073-.22h-.064v.32h.045v-.242l.069.208h.046l.069-.209v.243h.045zm-.403 0v-.266h.082v-.054h-.208v.054h.082v.266h.044zM20.285 6.593c0 3.642-2.806 6.594-6.268 6.594-1.463 0-2.808-.527-3.874-1.41 1.458-1.207 2.394-3.08 2.394-5.184 0-2.103-.936-3.976-2.394-5.183C11.209.527 12.554 0 14.017 0c3.462 0 6.268 2.952 6.268 6.593" mask="url(#prefix__m)"/>
            </g>
        </g>
        <rect width="29.5" height="19.5" x=".25" y=".25" stroke="#D8D8D8" stroke-width=".5" rx="1.62"/>
        <g fill="#16216A">
            <path d="M18.162.737c-.38-.147-.978-.306-1.724-.306-1.9 0-3.24.984-3.252 2.394-.01 1.042.956 1.624 1.686 1.971.748.356 1.002.582.998.9-.006.486-.599.707-1.153.707-.768 0-1.177-.11-1.81-.38l-.247-.114-.27 1.623c.448.202 1.28.377 2.143.386 2.022 0 3.335-.972 3.35-2.478.006-.824-.505-1.452-1.615-1.97-.673-.336-1.085-.56-1.082-.9 0-.3.35-.623 1.103-.623.629-.01 1.085.131 1.44.277l.172.084.261-1.57M23.094.565h-1.486c-.46 0-.805.13-1.006.601l-2.858 6.647h2.021s.33-.894.405-1.09l2.463.004c.057.253.234 1.086.234 1.086h1.785L23.094.565zm-2.372 4.676c.16-.42.767-2.03.767-2.03-.01.02.158-.419.254-.692l.131.626s.37 1.732.446 2.096h-1.598zM7.648.563L5.765 5.509l-.201-1.005C5.214 3.346 4.12 2.09 2.9 1.46l1.721 6.343 2.036-.002L9.686.563H7.648" transform="translate(2.16 5.556)"/>
            <path d="M4.018.56H.915L.89.71c2.413.6 4.01 2.051 4.673 3.794L4.89 1.17c-.117-.46-.454-.595-.872-.612M9.262 7.81L10.464.558 12.389.558 11.184 7.81 9.262 7.81" transform="translate(2.16 5.556)"/>
        </g>
    </g>
</svg>
